<?xml version="1.0" encoding="iso-8859-1"?>
<!-- Generator: Adobe Illustrator 19.0.0, SVG Export Plug-In . SVG Version: 6.00 Build 0)  -->
<svg version="1.1" id="Capa_1" xmlns="http://www.w3.org/2000/svg" xmlns:xlink="http://www.w3.org/1999/xlink" x="0px" y="0px"
	 viewBox="0 0 512 512" style="enable-background:new 0 0 512 512;" xml:space="preserve">
<g>
	<path style="fill:#A4C2F7;" d="M314.558,9.481h81.996c58.523,0,105.965,47.442,105.965,105.965v281.107
		c0,58.523-47.442,105.965-105.965,105.965h-81.996c-58.523,0-105.965-47.442-105.965-105.965V115.447
		C208.593,56.924,256.035,9.481,314.558,9.481z"/>
	<path style="fill:#FFFFFF;" d="M115.447,9.481h81.996c58.523,0,105.965,47.442,105.965,105.965v281.107
		c0,58.523-47.442,105.965-105.965,105.965h-81.996c-58.523,0-105.965-47.442-105.965-105.965V115.447
		C9.481,56.924,56.924,9.481,115.447,9.481z"/>
	<path style="fill:#E3E7F2;" d="M143.891,9.481h224.218c58.523,0,105.965,47.442,105.965,105.965v281.107
		c0,58.523-47.442,105.965-105.965,105.965H143.891c-58.523,0-105.965-47.442-105.965-105.965V115.447
		C37.926,56.924,85.368,9.481,143.891,9.481z"/>
	<polygon style="fill:#7FACFA;" points="407.704,162.541 199.111,189.63 199.111,120.548 407.704,93.459 	"/>
	<polygon style="fill:#A4C2F7;" points="379.259,162.541 199.111,189.63 199.111,120.548 379.259,93.459 	"/>
	<ellipse style="fill:#7FACFA;" cx="346.747" cy="330.496" rx="60.956" ry="54.177"/>
	<ellipse style="fill:#A4C2F7;" cx="332.516" cy="330.496" rx="46.734" ry="54.177"/>
	<ellipse style="fill:#7FACFA;" cx="137.481" cy="391.49" rx="61.63" ry="54.177"/>
	<ellipse style="fill:#A4C2F7;" cx="123.259" cy="391.49" rx="47.407" ry="54.177"/>
	<g>
		<path style="fill:#428DFF;" d="M396.556,512H115.444C51.716,511.929,0.071,460.284,0,396.556V115.444
			C0.071,51.716,51.716,0.071,115.444,0h281.111C460.284,0.071,511.929,51.716,512,115.444v281.111
			C511.929,460.284,460.284,511.929,396.556,512z M115.444,18.963c-53.261,0.059-96.422,43.221-96.481,96.481v281.111
			c0.059,53.261,43.221,96.422,96.481,96.481h281.111c53.261-0.059,96.422-43.221,96.481-96.481V115.444
			c-0.059-53.261-43.221-96.422-96.481-96.481H115.444z"/>
		<path style="fill:#428DFF;" d="M199.111,199.111c-5.236-0.001-9.48-4.246-9.481-9.481v-69.083
			c-0.001-4.764,3.535-8.788,8.259-9.398l208.593-27.083c2.704-0.353,5.43,0.476,7.479,2.276c2.049,1.8,3.224,4.395,3.224,7.122
			v69.074c0.001,4.764-3.535,8.788-8.259,9.398l-208.593,27.093C199.928,199.083,199.52,199.111,199.111,199.111z M208.593,128.88
			v49.954l189.63-24.63v-49.944L208.593,128.88z"/>
		<path style="fill:#428DFF;" d="M199.111,400.935c-2.515,0.001-4.927-0.998-6.705-2.776s-2.777-4.19-2.776-6.705V161.185
			c0-5.236,4.245-9.481,9.481-9.481c5.236,0,9.481,4.245,9.481,9.481v230.268c0.001,2.515-0.998,4.927-2.776,6.705
			C204.038,399.937,201.626,400.936,199.111,400.935L199.111,400.935z"/>
		<path style="fill:#428DFF;" d="M407.704,339.981c-2.515,0.001-4.927-0.998-6.705-2.776c-1.778-1.778-2.777-4.19-2.776-6.705
			V134.093c0-5.236,4.245-9.481,9.481-9.481s9.481,4.245,9.481,9.481V330.5c0.001,2.515-0.998,4.927-2.776,6.705
			C412.631,338.983,410.219,339.982,407.704,339.981z"/>
		<path style="fill:#428DFF;" d="M346.75,394.157c-38.833,0-70.431-28.556-70.431-63.657s31.597-63.667,70.431-63.667
			c38.838,0,70.435,28.565,70.435,63.667S385.588,394.157,346.75,394.157z M346.75,285.796c-28.38,0-51.468,20.055-51.468,44.704
			c0,24.648,23.087,44.694,51.468,44.694c28.38,0,51.472-20.047,51.472-44.694C398.222,305.852,375.13,285.796,346.75,285.796
			L346.75,285.796z"/>
		<path style="fill:#428DFF;" d="M137.481,455.111c-39.213,0-71.111-28.556-71.111-63.657s31.898-63.667,71.111-63.667
			s71.111,28.565,71.111,63.667S176.694,455.111,137.481,455.111z M137.481,346.75c-28.755,0-52.148,20.056-52.148,44.704
			c0,24.648,23.394,44.694,52.148,44.694s52.148-20.046,52.148-44.694C189.63,366.806,166.236,346.75,137.481,346.75z"/>
	</g>
</g>
<g>
</g>
<g>
</g>
<g>
</g>
<g>
</g>
<g>
</g>
<g>
</g>
<g>
</g>
<g>
</g>
<g>
</g>
<g>
</g>
<g>
</g>
<g>
</g>
<g>
</g>
<g>
</g>
<g>
</g>
</svg>
